<svg width="80" height="23" viewBox="0 0 80 23" fill="none" xmlns="http://www.w3.org/2000/svg">
<path d="M10.4529 17.3143C10.4529 18.6857 9.98225 19.8579 9.04208 20.8307C8.10077 21.8036 6.96822 22.29 5.64329 22.29H4.80962C3.48354 22.29 2.35099 21.8036 1.41082 20.8307C0.46951 19.8579 0 18.6857 0 17.3143V0.199314H3.20641V16.415C3.20641 18.2717 3.90037 19.2006 5.29058 19.2006C6.59376 19.2006 7.24649 18.2717 7.24649 16.415V0.199314H10.4529V17.3143Z" fill="#F6F6F6"/>
<path d="M22.5092 21.991H19.1104L15.7437 10.2315V21.991H12.6655L12.5693 0.431847H15.9819L19.4311 12.4809V0.431847H22.5092V21.991Z" fill="#F6F6F6"/>
<path d="M28.1521 21.991H24.8174V0.398628L28.1521 0.431847V21.991Z" fill="#F6F6F6"/>
<path d="M40.5603 17.3071C40.5603 18.681 40.0897 19.8543 39.1495 20.8284C38.2093 21.8024 37.0756 22.29 35.7507 22.29H34.917C33.591 22.29 32.4584 21.8036 31.5182 20.8307C30.5769 19.8579 30.1074 18.6857 30.1074 17.3143V4.97574C30.1074 3.60546 30.5769 2.4333 31.5182 1.45927C32.4584 0.486422 33.591 0 34.917 0H35.7507C37.0756 0 38.2082 0.487609 39.1495 1.46164C40.0897 2.43686 40.5603 3.6102 40.5603 4.98286V8.40443H37.418V6.42315C37.418 4.13459 36.7012 2.98972 35.2697 2.98972C33.9654 2.98972 33.3138 3.91629 33.3138 5.76826V16.4209C33.3138 18.2741 34.0192 19.1994 35.4312 19.1994C36.7561 19.1994 37.418 18.2693 37.418 16.409V13.519H40.5603V17.306V17.3071Z" fill="#F6F6F6"/>
<path d="M51.7501 3.15581H48.5116V21.991H45.177V3.15581H41.9705L41.9385 0.398628H51.718L51.7501 3.15581Z" fill="#F6F6F6"/>
<path d="M61.2096 21.991H57.8909L57.1122 17.0746H54.6616L53.8543 21.991H50.5322L54.2196 0.398628L57.6505 0.431847L61.2096 21.991ZM56.5923 13.6198L55.919 8.37121L55.2457 13.6198H56.5923Z" fill="#F6F6F6"/>
<path d="M70.6373 0.431847L66.9499 22.0243L63.5191 21.991L59.96 0.431847H63.2946L65.2505 15.0482L67.3026 0.431847H70.6373Z" fill="#F6F6F6"/>
<path d="M79.9996 21.991H76.681L75.9023 17.0746H73.4517L72.6443 21.991H69.3223L73.0085 0.398628L76.4394 0.431847L79.9985 21.991H79.9996ZM75.3824 13.6198L74.709 8.37121L74.0357 13.6198H75.3824Z" fill="#F6F6F6"/>
</svg>
