<svg width="58" height="11" viewBox="0 0 58 11" fill="none" xmlns="http://www.w3.org/2000/svg">
<path d="M5.96392 2.77418C5.90818 2.18951 5.65852 1.72514 5.21727 1.37987C4.77485 1.0346 4.2198 0.862571 3.54979 0.862571C3.07834 0.862571 2.66379 0.946783 2.30498 1.114C1.94733 1.28122 1.66632 1.51341 1.46427 1.80815C1.26106 2.10409 1.16004 2.43974 1.16004 2.81508C1.16004 3.09178 1.2181 3.33479 1.33306 3.54291C1.44802 3.75104 1.60478 3.93029 1.80102 4.07826C1.99726 4.22743 2.21441 4.35375 2.45361 4.45962C2.69282 4.56548 2.93435 4.65451 3.1782 4.72669L4.24651 5.04429C4.56932 5.13692 4.89329 5.25482 5.21611 5.39798C5.53892 5.54114 5.83503 5.72159 6.10442 5.93934C6.37266 6.15588 6.58981 6.42175 6.75237 6.73454C6.9161 7.04733 6.99739 7.42267 6.99739 7.85937C6.99739 8.41998 6.85688 8.92405 6.57703 9.37157C6.29602 9.8191 5.89425 10.174 5.36939 10.435C4.84452 10.6961 4.21631 10.8272 3.4836 10.8272C2.79385 10.8272 2.19583 10.7081 1.68722 10.4711C1.17862 10.2341 0.780326 9.90451 0.490026 9.48466C0.199726 9.0636 0.0359972 8.57757 0 8.02298H0.949861C0.982375 8.43682 1.11475 8.7869 1.34583 9.07442C1.57691 9.36195 1.8765 9.5797 2.24692 9.72767C2.61618 9.87684 3.02841 9.95023 3.4836 9.95023C3.98872 9.95023 4.4381 9.86241 4.83175 9.68677C5.2254 9.51113 5.53544 9.2645 5.76187 8.94811C5.9883 8.63171 6.10094 8.26359 6.10094 7.84373C6.10094 7.48884 6.01153 7.19049 5.83387 6.94868C5.6562 6.70807 5.40771 6.50476 5.08954 6.34115C4.77137 6.17754 4.40211 6.03197 3.98407 5.90565L2.77178 5.53633C1.97636 5.28971 1.35976 4.95045 0.920831 4.51616C0.481898 4.08187 0.262431 3.52848 0.262431 2.85478C0.262431 2.29056 0.408742 1.79492 0.700203 1.36544C0.991664 0.937158 1.38763 0.601513 1.88811 0.360908C2.38743 0.120303 2.94945 0 3.57301 0C4.19657 0 4.76092 0.120304 5.24514 0.358503C5.72936 0.596702 6.11488 0.926331 6.40053 1.34498C6.68619 1.76364 6.8383 2.24003 6.85804 2.77297H5.96276L5.96392 2.77418Z" fill="#F6F6F6"/>
<path d="M10.1493 1.01054V0.149175H17.4973V1.01054H14.2854V10.648H13.36V1.01054H10.1481H10.1493Z" fill="#F6F6F6"/>
<path d="M27.8629 0.150378H28.7884V7.10146C28.7884 7.81606 28.627 8.45366 28.303 9.01668C27.9802 9.57849 27.5296 10.0212 26.9548 10.3448C26.3789 10.6672 25.71 10.8296 24.9483 10.8296C24.1865 10.8296 23.5212 10.6672 22.944 10.3424C22.3669 10.0176 21.9164 9.57488 21.5936 9.01427C21.2708 8.45366 21.1082 7.81606 21.1082 7.10267V0.151582H22.0337V7.0365C22.0337 7.5935 22.1544 8.09035 22.3948 8.52584C22.6352 8.96134 22.9742 9.3042 23.412 9.55323C23.8486 9.80226 24.3607 9.92737 24.9483 9.92737C25.5358 9.92737 26.0479 9.80226 26.4869 9.55323C26.9258 9.3042 27.2649 8.96134 27.5041 8.52584C27.7433 8.09035 27.8629 7.5935 27.8629 7.0365V0.151582V0.150378Z" fill="#F6F6F6"/>
<path d="M35.9822 10.6492H33.013V0.150378H36.1598C37.126 0.150378 37.9539 0.358503 38.6413 0.775953C39.3288 1.1934 39.8559 1.79131 40.2229 2.57087C40.5887 3.35043 40.7721 4.28518 40.7721 5.37512C40.7721 6.46506 40.5852 7.42026 40.2101 8.20704C39.8362 8.99502 39.2916 9.59894 38.5775 10.0188C37.8633 10.4387 36.9982 10.6492 35.9822 10.6492ZM33.9385 9.78782H35.9276C36.7985 9.78782 37.5277 9.60977 38.1141 9.25488C38.7017 8.89998 39.1418 8.39231 39.4356 7.73185C39.7294 7.07259 39.8757 6.28581 39.8757 5.37392C39.8722 4.46804 39.7282 3.68968 39.4426 3.03644C39.1569 2.38319 38.7354 1.88274 38.1757 1.53386C37.616 1.18498 36.9262 1.01054 36.1053 1.01054H33.9373V9.78662L33.9385 9.78782Z" fill="#F6F6F6"/>
<path d="M45.466 0.150378V10.6492H44.5405V0.150378H45.466Z" fill="#F6F6F6"/>
<path d="M58 5.39918C58 6.49273 57.8119 7.44432 57.4357 8.25155C57.0594 9.05878 56.5427 9.68556 55.8843 10.1283C55.2259 10.571 54.47 10.7923 53.6153 10.7923C52.7607 10.7923 52.0047 10.571 51.3463 10.1283C50.6879 9.68556 50.1712 9.05999 49.7973 8.25155C49.4234 7.44312 49.2353 6.49273 49.2353 5.39918C49.2353 4.30563 49.4222 3.35404 49.7973 2.54681C50.1712 1.73837 50.6891 1.1128 51.3487 0.670086C52.0082 0.227372 52.7642 0.006015 53.6153 0.006015C54.4665 0.006015 55.2259 0.227372 55.8843 0.670086C56.5427 1.1128 57.0594 1.73837 57.4357 2.54681C57.8119 3.35524 58 4.30563 58 5.39918ZM57.0989 5.39918C57.0989 4.45962 56.9468 3.65359 56.6437 2.9823C56.3407 2.31101 55.9261 1.79732 55.4013 1.44123C54.8764 1.08633 54.2819 0.908284 53.6153 0.908284C52.9488 0.908284 52.3589 1.08633 51.8341 1.44123C51.3092 1.79732 50.8946 2.30981 50.5892 2.97869C50.2839 3.64878 50.1317 4.4548 50.1317 5.39798C50.1317 6.34115 50.2839 7.14236 50.5869 7.81245C50.89 8.48253 51.3045 8.99623 51.8294 9.35353C52.3543 9.71082 52.9488 9.88887 53.6153 9.88887C54.2819 9.88887 54.8776 9.71083 55.4036 9.35593C55.9296 9.00104 56.3441 8.48735 56.6484 7.81486C56.9515 7.14357 57.1024 6.33754 57.0989 5.39798V5.39918Z" fill="#F6F6F6"/>
</svg>
